<svg xmlns="http://www.w3.org/2000/svg" width="600" height="400" viewBox="0 0 600 400"><rect width="100%" height="100%" fill="#DDDDDD"/><path fill="#999999" d="M158.255 213.555q.78 0 1.38.61l3.76 4.08q-3.12 3.87-7.68 5.93t-10.95 2.06q-5.72 0-10.28-1.95-4.56-1.96-7.79-5.44t-4.96-8.3q-1.72-4.83-1.72-10.55 0-5.78 1.85-10.59 1.84-4.81 5.2-8.29 3.35-3.48 8-5.42 4.66-1.93 10.3-1.93 5.61 0 9.96 1.84 4.35 1.85 7.4 4.83l-3.2 4.44q-.28.43-.72.75-.45.32-1.23.32-.53 0-1.1-.31-.57-.3-1.24-.74-.68-.45-1.56-.98-.89-.53-2.06-.97-1.17-.45-2.72-.75-1.54-.3-3.57-.3-3.44 0-6.3 1.22-2.86 1.23-4.91 3.55-2.06 2.33-3.2 5.68-1.13 3.36-1.13 7.65 0 4.33 1.22 7.71 1.22 3.37 3.32 5.68 2.09 2.3 4.93 3.53 2.84 1.22 6.11 1.22 1.95 0 3.53-.21t2.91-.67q1.33-.47 2.52-1.19 1.19-.73 2.36-1.8.36-.32.75-.51.39-.2.82-.2m57.29-13.56q0 5.65-1.88 10.37t-5.29 8.13-8.2 5.29-10.65 1.88h-19.56v-51.33h19.56q5.86 0 10.65 1.9t8.2 5.29 5.29 8.11 1.88 10.36m-9.79 0q0-4.22-1.12-7.58-1.12-3.35-3.23-5.68-2.12-2.32-5.12-3.56-3-1.25-6.76-1.25h-9.97v36.14h9.97q3.76 0 6.76-1.24t5.12-3.57q2.11-2.32 3.23-5.68 1.12-3.35 1.12-7.58m53.07-25.66h8.41v51.33h-4.9q-1.13 0-1.9-.37-.76-.38-1.47-1.26l-26.8-34.23q.21 2.35.21 4.34v31.52h-8.41v-51.33h5q.61 0 1.05.05t.78.21.66.46q.32.31.71.8l26.91 34.37q-.11-1.25-.18-2.45-.07-1.21-.07-2.24zm82.68 25.66q0 5.65-1.88 10.37-1.89 4.72-5.29 8.13-3.41 3.41-8.2 5.29-4.8 1.88-10.65 1.88h-19.56v-51.33h19.56q5.85 0 10.65 1.9 4.79 1.9 8.2 5.29 3.4 3.39 5.29 8.11 1.88 4.72 1.88 10.36m-9.8 0q0-4.22-1.12-7.58-1.12-3.35-3.23-5.68-2.11-2.32-5.11-3.56-3-1.25-6.76-1.25h-9.98v36.14h9.98q3.76 0 6.76-1.24t5.11-3.57q2.11-2.32 3.23-5.68 1.12-3.35 1.12-7.58m23.75 3.27h16.54q0-1.7-.48-3.21t-1.44-2.65q-.95-1.13-2.43-1.79-1.47-.66-3.42-.66-3.8 0-5.98 2.17-2.19 2.16-2.79 6.14m22.36 5.29h-22.54q.21 2.8 1 4.84.78 2.05 2.05 3.38 1.28 1.33 3.04 1.99 1.76.65 3.89.65t3.67-.5q1.55-.49 2.7-1.1 1.15-.6 2.02-1.1.87-.49 1.69-.49 1.1 0 1.63.81l2.52 3.2q-1.45 1.7-3.26 2.86-1.81 1.15-3.78 1.84t-4.02.98q-2.04.28-3.95.28-3.8 0-7.07-1.26-3.26-1.26-5.68-3.73-2.41-2.46-3.8-6.1-1.38-3.64-1.38-8.43 0-3.73 1.21-7.01 1.2-3.29 3.46-5.72 2.25-2.43 5.5-3.85t7.33-1.42q3.44 0 6.35 1.1 2.92 1.1 5.01 3.21t3.28 5.19q1.19 3.07 1.19 7.01 0 1.98-.42 2.68-.43.69-1.64.69m17.4 17.11h-8.77v-36.42h5.36q1.7 0 2.24 1.59l.57 2.7q.95-1.06 2-1.95t2.24-1.53 2.55-1.01q1.37-.37 3-.37 3.45 0 5.67 1.86 2.21 1.87 3.31 4.95.86-1.81 2.13-3.1 1.28-1.3 2.81-2.11 1.53-.82 3.25-1.21t3.46-.39q3.02 0 5.36.92t3.94 2.7q1.6 1.77 2.43 4.33.84 2.56.84 5.86v23.18h-8.77v-23.18q0-3.48-1.53-5.24t-4.47-1.76q-1.35 0-2.51.47-1.15.46-2.02 1.33t-1.37 2.18q-.49 1.31-.49 3.02v23.18h-8.81v-23.18q0-3.66-1.47-5.33t-4.31-1.67q-1.92 0-3.57.95-1.65.94-3.07 2.57zm66.81-36.99q4.05 0 7.37 1.31 3.32 1.32 5.68 3.73t3.63 5.89q1.28 3.48 1.28 7.78 0 4.33-1.28 7.81-1.27 3.48-3.63 5.93t-5.68 3.76-7.37 1.31q-4.08 0-7.42-1.31t-5.7-3.76-3.65-5.93q-1.3-3.48-1.3-7.81 0-4.3 1.3-7.78 1.29-3.48 3.65-5.89t5.7-3.73q3.34-1.31 7.42-1.31m0 30.78q4.54 0 6.73-3.06 2.18-3.05 2.18-8.94t-2.18-8.98q-2.19-3.09-6.73-3.09-4.62 0-6.83 3.1-2.22 3.11-2.22 8.97t2.22 8.93q2.21 3.07 6.83 3.07"/></svg>